<svg width="64" height="64" viewBox="0 0 64 64" fill="none" xmlns="http://www.w3.org/2000/svg">
<rect width="64" height="64" rx="16" fill="#6B1D2A"/>
<g transform="translate(6, 6)">
<path d="M49 16.5C49 16.5 48.5 13 47 11.5C45 9.5 43 9.5 42 9.5C35 9 26.5 9 26.5 9H26C26 9 17.5 9 10.5 9.5C9.5 9.5 7.5 9.5 5.5 11.5C4 13 3.5 16.5 3.5 16.5C3.5 16.5 3 20.5 3 24.5V28C3 32 3.5 36 3.5 36C3.5 36 4 39.5 5.5 41C7.5 43 10 43 11 43.5C14.5 44 26.5 44.5 26.5 44.5C26.5 44.5 35 44.5 42 44C43 44 45 43.5 47 41.5C48.5 40 49 36.5 49 36.5C49 36.5 49.5 32.5 49.5 28.5V24.5C49.5 20.5 49 16.5 49 16.5Z" fill="white"/>
<path d="M21.5 33L34.5 25.5L21.5 18V33Z" fill="#6B1D2A"/>
</g>
</svg>
